<svg width="100" height="100" viewBox="0 0 100 100" fill="none" xmlns="http://www.w3.org/2000/svg">
<rect x="1" y="1" width="98" height="98" fill="#BCE784" stroke="#041514" stroke-width="2"/>
<mask id="path-2-inside-1_1_111" fill="white">
<path fill-rule="evenodd" clip-rule="evenodd" d="M19.6624 9.76237L9.76288 19.6619L68.1013 78.0002H26V92.0002H92V92V78.0002V26H78V68.1L19.6624 9.76237Z"/>
</mask>
<path fill-rule="evenodd" clip-rule="evenodd" d="M19.6624 9.76237L9.76288 19.6619L68.1013 78.0002H26V92.0002H92V92V78.0002V26H78V68.1L19.6624 9.76237Z" fill="#ADA2F9"/>
<path d="M9.76288 19.6619L8.34866 18.2477L6.93445 19.6619L8.34866 21.0761L9.76288 19.6619ZM19.6624 9.76237L21.0766 8.34816L19.6624 6.93394L18.2482 8.34816L19.6624 9.76237ZM68.1013 78.0002V80.0002H72.9297L69.5155 76.586L68.1013 78.0002ZM26 78.0002V76.0002H24V78.0002H26ZM26 92.0002H24V94.0002H26V92.0002ZM92 92.0002V94.0002H94V92.0002H92ZM92 26H94V24H92V26ZM78 26V24H76V26H78ZM78 68.1L76.5858 69.5142L80 72.9284V68.1H78ZM11.1771 21.0761L21.0766 11.1766L18.2482 8.34816L8.34866 18.2477L11.1771 21.0761ZM69.5155 76.586L11.1771 18.2477L8.34866 21.0761L66.687 79.4145L69.5155 76.586ZM68.1013 76.0002H26V80.0002H68.1013V76.0002ZM24 78.0002V92.0002H28V78.0002H24ZM26 94.0002H92V90.0002H26V94.0002ZM94 92.0002V92H90V92.0002H94ZM94 92V78.0002H90V92H94ZM94 78.0002V26H90V78.0002H94ZM92 24H78V28H92V24ZM76 26V68.1H80V26H76ZM18.2482 11.1766L76.5858 69.5142L79.4142 66.6858L21.0766 8.34816L18.2482 11.1766Z" fill="#041514" mask="url(#path-2-inside-1_1_111)"/>
</svg>
